<svg height="512" viewBox="0 0 24 24" width="512" xmlns="http://www.w3.org/2000/svg"><path d="M12 5.8A6.2 6.2 0 0 0 5.8 12a6.2 6.2 0 0 0 6.2 6.2 6.2 6.2 0 0 0 6.2-6.2A6.2 6.2 0 0 0 12 5.8zM12 16a4 4 0 1 1 4-4 4 4 0 0 1-4 4z"/><path d="M17 0H7C5.2.3 3.5.7 2 2-.3 4.3 0 7.4 0 12c0 4.7-.2 7.7 2 10 2.3 2.3 5.5 2 10 2 4.6 0 6.2 0 7.9-.6 2.2-.9 3.9-2.9 4-6.5V7.1c-.2-4.3-2.4-6.8-7-7zm3.4 20.4C19 22 16.8 21.8 12 21.8c-5 0-7 .1-8.5-1.4-1.7-1.6-1.4-4.3-1.4-8.4 0-5.5-.5-9.5 5-9.8H12c5.3 0 9.5-.6 9.8 5V12c0 5 .1 7-1.4 8.4z"/><circle cx="18.4" cy="5.6" r="1.4"/></svg>